<mxfile host="app.diagrams.net" modified="2024-05-16T07:35:40.653Z" agent="Mozilla/5.0 (X11; Ubuntu; Linux x86_64; rv:125.0) Gecko/20100101 Firefox/125.0" etag="tdOcri9Bk9A-f-p6OmrE" version="24.4.0" type="device">
  <diagram name="Page-1" id="kC8960nUIEy7Ft5sr2Wp">
    <mxGraphModel dx="1364" dy="795" grid="1" gridSize="10" guides="1" tooltips="1" connect="1" arrows="1" fold="1" page="1" pageScale="1" pageWidth="1169" pageHeight="827" math="0" shadow="0">
      <root>
        <mxCell id="0" />
        <mxCell id="1" parent="0" />
        <mxCell id="nBkBOxb4ZSTBkyMc9Or--2" value="&lt;font style=&quot;font-size: 24px;&quot;&gt;Software architecture overview&lt;br&gt;&lt;/font&gt;" style="text;html=1;align=center;verticalAlign=middle;whiteSpace=wrap;rounded=0;" parent="1" vertex="1">
          <mxGeometry x="40" y="30" width="380" height="40" as="geometry" />
        </mxCell>
        <mxCell id="nBkBOxb4ZSTBkyMc9Or--13" value="" style="edgeStyle=orthogonalEdgeStyle;rounded=0;orthogonalLoop=1;jettySize=auto;html=1;" parent="1" source="nBkBOxb4ZSTBkyMc9Or--12" target="nBkBOxb4ZSTBkyMc9Or--10" edge="1">
          <mxGeometry relative="1" as="geometry" />
        </mxCell>
        <mxCell id="nBkBOxb4ZSTBkyMc9Or--14" value="Instructions" style="edgeLabel;html=1;align=center;verticalAlign=middle;resizable=0;points=[];fontSize=18;" parent="nBkBOxb4ZSTBkyMc9Or--13" vertex="1" connectable="0">
          <mxGeometry x="-0.3331" y="-4" relative="1" as="geometry">
            <mxPoint x="40" y="7" as="offset" />
          </mxGeometry>
        </mxCell>
        <mxCell id="nBkBOxb4ZSTBkyMc9Or--12" value="IRQ" style="ellipse;whiteSpace=wrap;html=1;aspect=fixed;fillColor=#f8cecc;strokeColor=#b85450;fontSize=18;" parent="1" vertex="1">
          <mxGeometry x="562.95" y="70" width="46" height="46" as="geometry" />
        </mxCell>
        <mxCell id="nBkBOxb4ZSTBkyMc9Or--34" value="" style="edgeStyle=orthogonalEdgeStyle;rounded=0;orthogonalLoop=1;jettySize=auto;html=1;" parent="1" source="nBkBOxb4ZSTBkyMc9Or--33" target="nBkBOxb4ZSTBkyMc9Or--4" edge="1">
          <mxGeometry relative="1" as="geometry" />
        </mxCell>
        <mxCell id="nBkBOxb4ZSTBkyMc9Or--35" value="New messge" style="edgeLabel;html=1;align=center;verticalAlign=middle;resizable=0;points=[];fontSize=18;" parent="nBkBOxb4ZSTBkyMc9Or--34" vertex="1" connectable="0">
          <mxGeometry x="0.0493" y="-2" relative="1" as="geometry">
            <mxPoint as="offset" />
          </mxGeometry>
        </mxCell>
        <mxCell id="nBkBOxb4ZSTBkyMc9Or--33" value="IRQ" style="ellipse;whiteSpace=wrap;html=1;aspect=fixed;fillColor=#f8cecc;strokeColor=#b85450;fontSize=18;" parent="1" vertex="1">
          <mxGeometry x="30" y="477.54" width="46" height="46" as="geometry" />
        </mxCell>
        <mxCell id="nBkBOxb4ZSTBkyMc9Or--43" style="rounded=0;orthogonalLoop=1;jettySize=auto;html=1;exitX=1;exitY=1;exitDx=0;exitDy=0;entryX=0;entryY=0;entryDx=0;entryDy=0;" parent="1" source="nBkBOxb4ZSTBkyMc9Or--42" target="nBkBOxb4ZSTBkyMc9Or--3" edge="1">
          <mxGeometry relative="1" as="geometry" />
        </mxCell>
        <mxCell id="nBkBOxb4ZSTBkyMc9Or--46" value="Current limit" style="edgeLabel;html=1;align=center;verticalAlign=middle;resizable=0;points=[];fontSize=18;" parent="nBkBOxb4ZSTBkyMc9Or--43" vertex="1" connectable="0">
          <mxGeometry x="-0.1993" y="2" relative="1" as="geometry">
            <mxPoint as="offset" />
          </mxGeometry>
        </mxCell>
        <mxCell id="nBkBOxb4ZSTBkyMc9Or--42" value="IRQ" style="ellipse;whiteSpace=wrap;html=1;aspect=fixed;fillColor=#f8cecc;strokeColor=#b85450;fontSize=18;" parent="1" vertex="1">
          <mxGeometry x="100" y="90" width="46" height="46" as="geometry" />
        </mxCell>
        <mxCell id="VOJGV0OhqMWmGHYZLpSJ-1" value="" style="group" vertex="1" connectable="0" parent="1">
          <mxGeometry x="210" y="180" width="794" height="616.5" as="geometry" />
        </mxCell>
        <mxCell id="nBkBOxb4ZSTBkyMc9Or--1" value="&lt;font style=&quot;font-size: 24px;&quot;&gt;main&lt;/font&gt; loop" style="rounded=1;whiteSpace=wrap;html=1;fillColor=#dae8fc;strokeColor=#6c8ebf;fontSize=24;imageWidth=24;" parent="VOJGV0OhqMWmGHYZLpSJ-1" vertex="1">
          <mxGeometry x="300.9516129032258" y="263.04" width="150" height="75" as="geometry" />
        </mxCell>
        <mxCell id="nBkBOxb4ZSTBkyMc9Or--3" value="ADC driver" style="rounded=1;whiteSpace=wrap;html=1;fillColor=#dae8fc;strokeColor=#6c8ebf;fontSize=24;imageWidth=24;" parent="VOJGV0OhqMWmGHYZLpSJ-1" vertex="1">
          <mxGeometry width="150" height="75" as="geometry" />
        </mxCell>
        <mxCell id="nBkBOxb4ZSTBkyMc9Or--4" value="CAN receive handler" style="rounded=1;whiteSpace=wrap;html=1;fillColor=#dae8fc;strokeColor=#6c8ebf;fontSize=24;imageWidth=24;" parent="VOJGV0OhqMWmGHYZLpSJ-1" vertex="1">
          <mxGeometry y="263.04" width="150" height="75" as="geometry" />
        </mxCell>
        <mxCell id="nBkBOxb4ZSTBkyMc9Or--5" value="accelerometer driver" style="rounded=1;whiteSpace=wrap;html=1;fillColor=#dae8fc;strokeColor=#6c8ebf;fontSize=24;imageWidth=24;" parent="VOJGV0OhqMWmGHYZLpSJ-1" vertex="1">
          <mxGeometry x="12.806451612903228" y="528.4285714285714" width="150" height="75" as="geometry" />
        </mxCell>
        <mxCell id="nBkBOxb4ZSTBkyMc9Or--6" value="joint control" style="rounded=1;whiteSpace=wrap;html=1;fillColor=#dae8fc;strokeColor=#6c8ebf;fontSize=24;imageWidth=24;" parent="VOJGV0OhqMWmGHYZLpSJ-1" vertex="1">
          <mxGeometry x="300.9516129032258" y="528.4285714285714" width="150" height="75" as="geometry" />
        </mxCell>
        <mxCell id="nBkBOxb4ZSTBkyMc9Or--7" value="motor driver" style="rounded=1;whiteSpace=wrap;html=1;fillColor=#dae8fc;strokeColor=#6c8ebf;fontSize=24;imageWidth=24;" parent="VOJGV0OhqMWmGHYZLpSJ-1" vertex="1">
          <mxGeometry x="601.9032258064516" y="528.4285714285714" width="150" height="75" as="geometry" />
        </mxCell>
        <mxCell id="nBkBOxb4ZSTBkyMc9Or--8" value="CAN transmit handler" style="rounded=1;whiteSpace=wrap;html=1;fillColor=#dae8fc;strokeColor=#6c8ebf;fontSize=24;imageWidth=24;" parent="VOJGV0OhqMWmGHYZLpSJ-1" vertex="1">
          <mxGeometry x="601.9032258064516" y="263.04" width="150" height="75" as="geometry" />
        </mxCell>
        <mxCell id="nBkBOxb4ZSTBkyMc9Or--9" value="UART parser" style="rounded=1;whiteSpace=wrap;html=1;fillColor=#dae8fc;strokeColor=#6c8ebf;fontSize=24;imageWidth=24;" parent="VOJGV0OhqMWmGHYZLpSJ-1" vertex="1">
          <mxGeometry x="601.9032258064516" width="150" height="75" as="geometry" />
        </mxCell>
        <mxCell id="nBkBOxb4ZSTBkyMc9Or--10" value="UART driver" style="rounded=1;whiteSpace=wrap;html=1;fillColor=#dae8fc;strokeColor=#6c8ebf;fontSize=24;imageWidth=24;" parent="VOJGV0OhqMWmGHYZLpSJ-1" vertex="1">
          <mxGeometry x="300.9516129032258" width="150" height="75" as="geometry" />
        </mxCell>
        <mxCell id="nBkBOxb4ZSTBkyMc9Or--39" style="rounded=0;orthogonalLoop=1;jettySize=auto;html=1;exitX=1;exitY=1;exitDx=0;exitDy=0;entryX=0;entryY=0;entryDx=0;entryDy=0;" parent="VOJGV0OhqMWmGHYZLpSJ-1" source="nBkBOxb4ZSTBkyMc9Or--3" target="nBkBOxb4ZSTBkyMc9Or--1" edge="1">
          <mxGeometry relative="1" as="geometry" />
        </mxCell>
        <mxCell id="VOJGV0OhqMWmGHYZLpSJ-3" value="&lt;font style=&quot;font-size: 18px;&quot;&gt;Current measurement&lt;/font&gt;" style="edgeLabel;html=1;align=center;verticalAlign=middle;resizable=0;points=[];" vertex="1" connectable="0" parent="nBkBOxb4ZSTBkyMc9Or--39">
          <mxGeometry x="0.079" y="1" relative="1" as="geometry">
            <mxPoint x="-42" y="-26" as="offset" />
          </mxGeometry>
        </mxCell>
        <mxCell id="nBkBOxb4ZSTBkyMc9Or--36" value="" style="edgeStyle=orthogonalEdgeStyle;rounded=0;orthogonalLoop=1;jettySize=auto;html=1;" parent="VOJGV0OhqMWmGHYZLpSJ-1" source="nBkBOxb4ZSTBkyMc9Or--4" target="nBkBOxb4ZSTBkyMc9Or--1" edge="1">
          <mxGeometry relative="1" as="geometry" />
        </mxCell>
        <mxCell id="nBkBOxb4ZSTBkyMc9Or--49" value="&lt;div style=&quot;font-size: 18px;&quot;&gt;Instructions,&lt;/div&gt;&lt;div style=&quot;font-size: 18px;&quot;&gt;telemetry&lt;br style=&quot;font-size: 18px;&quot;&gt;&lt;/div&gt;" style="edgeLabel;html=1;align=center;verticalAlign=middle;resizable=0;points=[];fontSize=18;" parent="nBkBOxb4ZSTBkyMc9Or--36" vertex="1" connectable="0">
          <mxGeometry x="-0.0493" y="-1" relative="1" as="geometry">
            <mxPoint as="offset" />
          </mxGeometry>
        </mxCell>
        <mxCell id="nBkBOxb4ZSTBkyMc9Or--28" style="edgeStyle=orthogonalEdgeStyle;rounded=0;orthogonalLoop=1;jettySize=auto;html=1;exitX=1;exitY=0.5;exitDx=0;exitDy=0;entryX=0;entryY=0.5;entryDx=0;entryDy=0;" parent="VOJGV0OhqMWmGHYZLpSJ-1" source="nBkBOxb4ZSTBkyMc9Or--5" target="nBkBOxb4ZSTBkyMc9Or--6" edge="1">
          <mxGeometry relative="1" as="geometry" />
        </mxCell>
        <mxCell id="nBkBOxb4ZSTBkyMc9Or--29" value="Acceleration" style="edgeLabel;html=1;align=center;verticalAlign=middle;resizable=0;points=[];fontSize=18;" parent="nBkBOxb4ZSTBkyMc9Or--28" vertex="1" connectable="0">
          <mxGeometry x="-0.1238" relative="1" as="geometry">
            <mxPoint as="offset" />
          </mxGeometry>
        </mxCell>
        <mxCell id="nBkBOxb4ZSTBkyMc9Or--38" style="edgeStyle=orthogonalEdgeStyle;rounded=0;orthogonalLoop=1;jettySize=auto;html=1;exitX=0.5;exitY=1;exitDx=0;exitDy=0;entryX=0.5;entryY=0;entryDx=0;entryDy=0;" parent="VOJGV0OhqMWmGHYZLpSJ-1" source="nBkBOxb4ZSTBkyMc9Or--1" target="nBkBOxb4ZSTBkyMc9Or--6" edge="1">
          <mxGeometry relative="1" as="geometry" />
        </mxCell>
        <mxCell id="nBkBOxb4ZSTBkyMc9Or--41" value="Setpoint" style="edgeLabel;html=1;align=center;verticalAlign=middle;resizable=0;points=[];fontSize=18;" parent="nBkBOxb4ZSTBkyMc9Or--38" vertex="1" connectable="0">
          <mxGeometry x="-0.1635" y="2" relative="1" as="geometry">
            <mxPoint as="offset" />
          </mxGeometry>
        </mxCell>
        <mxCell id="nBkBOxb4ZSTBkyMc9Or--24" style="edgeStyle=orthogonalEdgeStyle;rounded=0;orthogonalLoop=1;jettySize=auto;html=1;exitX=1;exitY=0.25;exitDx=0;exitDy=0;entryX=0;entryY=0.25;entryDx=0;entryDy=0;" parent="VOJGV0OhqMWmGHYZLpSJ-1" source="nBkBOxb4ZSTBkyMc9Or--6" target="nBkBOxb4ZSTBkyMc9Or--7" edge="1">
          <mxGeometry relative="1" as="geometry" />
        </mxCell>
        <mxCell id="nBkBOxb4ZSTBkyMc9Or--26" value="Motor power" style="edgeLabel;html=1;align=center;verticalAlign=middle;resizable=0;points=[];fontSize=18;" parent="nBkBOxb4ZSTBkyMc9Or--24" vertex="1" connectable="0">
          <mxGeometry x="-0.113" relative="1" as="geometry">
            <mxPoint as="offset" />
          </mxGeometry>
        </mxCell>
        <mxCell id="nBkBOxb4ZSTBkyMc9Or--25" style="edgeStyle=orthogonalEdgeStyle;rounded=0;orthogonalLoop=1;jettySize=auto;html=1;exitX=0;exitY=0.75;exitDx=0;exitDy=0;entryX=1;entryY=0.75;entryDx=0;entryDy=0;" parent="VOJGV0OhqMWmGHYZLpSJ-1" source="nBkBOxb4ZSTBkyMc9Or--7" target="nBkBOxb4ZSTBkyMc9Or--6" edge="1">
          <mxGeometry relative="1" as="geometry" />
        </mxCell>
        <mxCell id="nBkBOxb4ZSTBkyMc9Or--27" value="Clicks" style="edgeLabel;html=1;align=center;verticalAlign=middle;resizable=0;points=[];fontSize=18;" parent="nBkBOxb4ZSTBkyMc9Or--25" vertex="1" connectable="0">
          <mxGeometry x="-0.0981" y="3" relative="1" as="geometry">
            <mxPoint as="offset" />
          </mxGeometry>
        </mxCell>
        <mxCell id="nBkBOxb4ZSTBkyMc9Or--30" style="edgeStyle=orthogonalEdgeStyle;rounded=0;orthogonalLoop=1;jettySize=auto;html=1;exitX=0.5;exitY=1;exitDx=0;exitDy=0;entryX=1;entryY=0.5;entryDx=0;entryDy=0;" parent="VOJGV0OhqMWmGHYZLpSJ-1" source="nBkBOxb4ZSTBkyMc9Or--5" target="nBkBOxb4ZSTBkyMc9Or--8" edge="1">
          <mxGeometry relative="1" as="geometry">
            <Array as="points">
              <mxPoint x="88" y="630" />
              <mxPoint x="830" y="630" />
              <mxPoint x="830" y="301" />
            </Array>
          </mxGeometry>
        </mxCell>
        <mxCell id="nBkBOxb4ZSTBkyMc9Or--31" value="Register values" style="edgeLabel;html=1;align=center;verticalAlign=middle;resizable=0;points=[];fontSize=18;" parent="nBkBOxb4ZSTBkyMc9Or--30" vertex="1" connectable="0">
          <mxGeometry x="-0.3608" y="1" relative="1" as="geometry">
            <mxPoint x="420" y="-248" as="offset" />
          </mxGeometry>
        </mxCell>
        <mxCell id="nBkBOxb4ZSTBkyMc9Or--37" value="" style="edgeStyle=orthogonalEdgeStyle;rounded=0;orthogonalLoop=1;jettySize=auto;html=1;" parent="VOJGV0OhqMWmGHYZLpSJ-1" source="nBkBOxb4ZSTBkyMc9Or--1" target="nBkBOxb4ZSTBkyMc9Or--8" edge="1">
          <mxGeometry relative="1" as="geometry">
            <Array as="points">
              <mxPoint x="557.0806451612902" y="308.25" />
              <mxPoint x="557.0806451612902" y="308.25" />
            </Array>
          </mxGeometry>
        </mxCell>
        <mxCell id="nBkBOxb4ZSTBkyMc9Or--48" value="&lt;div style=&quot;font-size: 18px;&quot;&gt;Instructions,&amp;nbsp;&lt;/div&gt;&lt;div style=&quot;font-size: 18px;&quot;&gt;telemetry&lt;/div&gt;" style="edgeLabel;html=1;align=center;verticalAlign=middle;resizable=0;points=[];fontSize=18;" parent="nBkBOxb4ZSTBkyMc9Or--37" vertex="1" connectable="0">
          <mxGeometry x="-0.0493" relative="1" as="geometry">
            <mxPoint as="offset" />
          </mxGeometry>
        </mxCell>
        <mxCell id="nBkBOxb4ZSTBkyMc9Or--40" style="rounded=0;orthogonalLoop=1;jettySize=auto;html=1;exitX=0;exitY=1;exitDx=0;exitDy=0;entryX=1;entryY=0;entryDx=0;entryDy=0;" parent="VOJGV0OhqMWmGHYZLpSJ-1" source="nBkBOxb4ZSTBkyMc9Or--9" target="nBkBOxb4ZSTBkyMc9Or--1" edge="1">
          <mxGeometry relative="1" as="geometry" />
        </mxCell>
        <mxCell id="nBkBOxb4ZSTBkyMc9Or--47" value="Instructions" style="edgeLabel;html=1;align=center;verticalAlign=middle;resizable=0;points=[];fontSize=18;" parent="nBkBOxb4ZSTBkyMc9Or--40" vertex="1" connectable="0">
          <mxGeometry x="-0.1985" y="-2" relative="1" as="geometry">
            <mxPoint as="offset" />
          </mxGeometry>
        </mxCell>
        <mxCell id="nBkBOxb4ZSTBkyMc9Or--44" style="edgeStyle=orthogonalEdgeStyle;rounded=0;orthogonalLoop=1;jettySize=auto;html=1;exitX=0.5;exitY=0;exitDx=0;exitDy=0;entryX=0.5;entryY=1;entryDx=0;entryDy=0;" parent="VOJGV0OhqMWmGHYZLpSJ-1" source="nBkBOxb4ZSTBkyMc9Or--1" target="nBkBOxb4ZSTBkyMc9Or--10" edge="1">
          <mxGeometry relative="1" as="geometry" />
        </mxCell>
        <mxCell id="nBkBOxb4ZSTBkyMc9Or--45" value="Telemetry" style="edgeLabel;html=1;align=center;verticalAlign=middle;resizable=0;points=[];fontSize=18;" parent="nBkBOxb4ZSTBkyMc9Or--44" vertex="1" connectable="0">
          <mxGeometry x="-0.0252" relative="1" as="geometry">
            <mxPoint as="offset" />
          </mxGeometry>
        </mxCell>
        <mxCell id="nBkBOxb4ZSTBkyMc9Or--15" style="edgeStyle=orthogonalEdgeStyle;rounded=0;orthogonalLoop=1;jettySize=auto;html=1;exitX=1;exitY=0.25;exitDx=0;exitDy=0;entryX=0;entryY=0.25;entryDx=0;entryDy=0;" parent="VOJGV0OhqMWmGHYZLpSJ-1" source="nBkBOxb4ZSTBkyMc9Or--10" target="nBkBOxb4ZSTBkyMc9Or--9" edge="1">
          <mxGeometry relative="1" as="geometry" />
        </mxCell>
        <mxCell id="nBkBOxb4ZSTBkyMc9Or--17" value="Instructions" style="edgeLabel;html=1;align=center;verticalAlign=middle;resizable=0;points=[];fontSize=18;" parent="nBkBOxb4ZSTBkyMc9Or--15" vertex="1" connectable="0">
          <mxGeometry x="0.0174" y="-1" relative="1" as="geometry">
            <mxPoint as="offset" />
          </mxGeometry>
        </mxCell>
      </root>
    </mxGraphModel>
  </diagram>
</mxfile>
